<?xml version="1.0" standalone="no"?><!DOCTYPE svg PUBLIC "-//W3C//DTD SVG 1.1//EN" "http://www.w3.org/Graphics/SVG/1.1/DTD/svg11.dtd"><svg t="1692349338627" class="icon" viewBox="0 0 1024 1024" version="1.1" xmlns="http://www.w3.org/2000/svg" p-id="17111" xmlns:xlink="http://www.w3.org/1999/xlink" width="200" height="200"><path d="M506.88 464.700952m-170.666667 0a170.666667 170.666667 0 1 0 341.333334 0 170.666667 170.666667 0 1 0-341.333334 0Z" fill="#FFCD00" p-id="17112"></path><path d="M506.88 425.447619a11.459048 11.459048 0 0 1-8.533333-3.657143l-59.245715-59.245714c-4.87619-4.87619-4.87619-12.434286 0-17.310476s12.434286-4.87619 17.310477 0l50.468571 50.468571 50.468571-50.468571c4.87619-4.87619 12.434286-4.87619 17.310477 0s4.87619 12.434286 0 17.310476l-59.245715 59.245714c-2.194286 2.681905-5.36381 3.657143-8.533333 3.657143zM586.118095 455.92381h-158.232381c-6.826667 0-12.190476-5.36381-12.190476-12.190477s5.36381-12.190476 12.190476-12.190476h158.232381c6.826667 0 12.190476 5.36381 12.190476 12.190476s-5.36381 12.190476-12.190476 12.190477zM586.118095 516.87619h-158.232381c-6.826667 0-12.190476-5.36381-12.190476-12.190476s5.36381-12.190476 12.190476-12.190476h158.232381c6.826667 0 12.190476 5.36381 12.190476 12.190476s-5.36381 12.190476-12.190476 12.190476z" p-id="17113"></path><path d="M506.88 580.754286c-6.826667 0-12.190476-5.36381-12.190476-12.190476v-155.062858c0-6.826667 5.36381-12.190476 12.190476-12.190476s12.190476 5.36381 12.190476 12.190476v155.062858c0 6.582857-5.36381 12.190476-12.190476 12.190476z" p-id="17114"></path><path d="M701.44 671.695238H391.314286c-60.464762 0-109.714286-49.249524-109.714286-109.714286v-57.782857c0-6.826667 5.36381-12.190476 12.190476-12.190476s12.190476 5.36381 12.190476 12.190476v57.782857c0 47.055238 38.278095 85.333333 85.333334 85.333334h310.125714c6.826667 0 12.190476 5.36381 12.190476 12.190476s-5.607619 12.190476-12.190476 12.190476z" p-id="17115"></path><path d="M648.289524 724.845714a11.459048 11.459048 0 0 1-8.533334-3.657143c-4.87619-4.87619-4.87619-12.434286 0-17.310476l44.617143-44.617143-44.617143-44.617142c-4.87619-4.87619-4.87619-12.434286 0-17.310477s12.434286-4.87619 17.310477 0l53.150476 53.150477c2.194286 2.194286 3.657143 5.36381 3.657143 8.533333s-1.219048 6.339048-3.657143 8.533333l-53.150476 53.150476c-2.681905 3.169524-5.851429 4.144762-8.777143 4.144762z" p-id="17116"></path><path d="M720.213333 430.811429c-6.826667 0-12.190476-5.36381-12.190476-12.190477V360.838095c0-47.055238-38.278095-85.333333-85.333333-85.333333H312.56381c-6.826667 0-12.190476-5.36381-12.190477-12.190476s5.36381-12.190476 12.190477-12.190476h310.125714c60.464762 0 109.714286 49.249524 109.714286 109.714285v57.782857c0 6.582857-5.607619 12.190476-12.190477 12.190477z" p-id="17117"></path><path d="M365.714286 328.655238a11.459048 11.459048 0 0 1-8.533334-3.657143l-53.150476-53.150476c-2.194286-2.194286-3.657143-5.36381-3.657143-8.533333s1.219048-6.339048 3.657143-8.533334l53.150476-53.150476c4.87619-4.87619 12.434286-4.87619 17.310477 0s4.87619 12.434286 0 17.310476l-44.617143 44.617143 44.617143 44.617143c4.87619 4.87619 4.87619 12.434286 0 17.310476-2.438095 1.950476-5.607619 3.169524-8.777143 3.169524z" p-id="17118"></path><path d="M930.377143 285.257143h-125.318095c-6.826667 0-12.190476-5.36381-12.190477-12.190476V186.514286c0-41.20381 33.645714-74.849524 74.849524-74.849524s74.849524 33.645714 74.849524 74.849524v86.552381c0 6.826667-5.36381 12.190476-12.190476 12.190476z m-113.127619-24.380953h100.937143V186.514286c0-27.794286-22.674286-50.468571-50.468572-50.468572s-50.468571 22.674286-50.468571 50.468572v74.361904z" p-id="17119"></path><path d="M755.078095 911.847619H156.281905c-41.20381 0-74.849524-33.645714-74.849524-74.849524v-38.521905c0-6.826667 5.36381-12.190476 12.190476-12.190476H692.419048c6.826667 0 12.190476 5.36381 12.190476 12.190476v38.521905c0 27.794286 22.674286 50.468571 50.468571 50.468572 6.826667 0 12.190476 5.36381 12.190476 12.190476s-5.607619 12.190476-12.190476 12.190476zM105.813333 810.666667v26.331428c0 27.794286 22.674286 50.468571 50.468572 50.468572H699.733333c-12.190476-13.409524-19.748571-30.96381-19.748571-50.468572v-26.331428H105.813333z" p-id="17120"></path><path d="M743.619048 912.579048H207.725714c-6.826667 0-12.190476-5.36381-12.190476-12.190477s5.36381-12.921905 12.190476-12.921904h542.476191c6.582857 0 11.702857 5.12 12.190476 11.459047 0.24381 6.582857-4.388571 12.190476-10.727619 12.678096-3.900952 0.731429-5.851429 0.975238-8.045714 0.975238z" p-id="17121"></path><path d="M754.346667 911.36c-42.666667-1.462857-74.118095-34.133333-74.118096-74.605714v-26.331429H207.725714c-6.826667 0-12.190476-5.36381-12.190476-12.190476V186.514286c0-41.20381 33.645714-74.849524 74.849524-74.849524h598.552381c6.826667 0 12.190476 5.36381 12.190476 12.190476s-5.36381 12.190476-12.190476 12.190476c-27.794286 0-50.468571 22.674286-50.468572 50.468572v651.215238c0 36.571429-27.550476 68.510476-64.121904 73.630476zM219.91619 786.285714H692.419048c6.826667 0 12.190476 5.36381 12.190476 12.190476v38.521905c0 27.062857 21.455238 49.249524 48.518095 50.224762 22.430476-3.413333 41.20381-24.868571 41.20381-49.493333V186.514286c0-19.504762 7.558095-37.059048 19.748571-50.468572h-543.695238c-27.794286 0-50.468571 22.674286-50.468572 50.468572v599.771428z" p-id="17122"></path></svg>